<?xml version="1.0" encoding="UTF-8"?>
<svg xmlns="http://www.w3.org/2000/svg" width="980" height="360" viewBox="0 0 980 360">

<style>
    text { font-family: Arial, sans-serif; fill: #172033; }
    .title { font-size: 20px; font-weight: 700; }
    .axis { stroke: #293241; stroke-width: 1.2; }
    .grid { stroke: #d7dee8; stroke-width: 1; }
    .label { font-size: 12px; }
    .value { font-size: 12px; font-weight: 600; }
    .caption { font-size: 12px; fill: #536173; }
</style>

<rect width="100%" height="100%" fill="#ffffff"/>
<text x="490.0" y="32" text-anchor="middle" class="title">Синтетический поиск: in-memory, disk, mmap</text>
<line x1="240.0" y1="70" x2="240.0" y2="305" class="grid"/>
<text x="240.0" y="327" text-anchor="middle" class="caption">0.000</text>
<line x1="374.0" y1="70" x2="374.0" y2="305" class="grid"/>
<text x="374.0" y="327" text-anchor="middle" class="caption">1000</text>
<line x1="508.0" y1="70" x2="508.0" y2="305" class="grid"/>
<text x="508.0" y="327" text-anchor="middle" class="caption">2000</text>
<line x1="642.0" y1="70" x2="642.0" y2="305" class="grid"/>
<text x="642.0" y="327" text-anchor="middle" class="caption">3000</text>
<line x1="776.0" y1="70" x2="776.0" y2="305" class="grid"/>
<text x="776.0" y="327" text-anchor="middle" class="caption">4000</text>
<line x1="910.0" y1="70" x2="910.0" y2="305" class="grid"/>
<text x="910.0" y="327" text-anchor="middle" class="caption">5000</text>
<line x1="240" y1="70" x2="240" y2="305" class="axis"/>
<line x1="240" y1="305" x2="910" y2="305" class="axis"/>
<text x="228" y="114.2" text-anchor="end" class="label">inMemorySearch</text>
<rect x="240" y="95.2" width="107.9" height="28.0" rx="4" fill="#2d9cdb"/>
<text x="355.9" y="114.2" class="value">804.9 us/op</text>
<text x="228" y="192.5" text-anchor="end" class="label">diskSearch</text>
<rect x="240" y="173.5" width="635.2" height="28.0" rx="4" fill="#2d9cdb"/>
<text x="883.2" y="192.5" class="value">4740 us/op</text>
<text x="228" y="270.9" text-anchor="end" class="label">mmapSearch</text>
<rect x="240" y="251.8" width="590.8" height="28.0" rx="4" fill="#2d9cdb"/>
<text x="838.8" y="270.9" class="value">4409 us/op</text>
<text x="575.0" y="350" text-anchor="middle" class="caption">us/op</text>
</svg>