<?xml version="1.0" encoding="UTF-8"?>
<svg xmlns="http://www.w3.org/2000/svg" width="980" height="260" viewBox="0 0 980 260">

<style>
    text { font-family: Arial, sans-serif; fill: #172033; }
    .title { font-size: 20px; font-weight: 700; }
    .axis { stroke: #293241; stroke-width: 1.2; }
    .grid { stroke: #d7dee8; stroke-width: 1; }
    .label { font-size: 12px; }
    .value { font-size: 12px; font-weight: 600; }
    .caption { font-size: 12px; fill: #536173; }
</style>

<rect width="100%" height="100%" fill="#ffffff"/>
<text x="490.0" y="32" text-anchor="middle" class="title">Запись синтетического индекса</text>
<line x1="330.0" y1="70" x2="330.0" y2="205" class="grid"/>
<text x="330.0" y="227" text-anchor="middle" class="caption">0.000</text>
<line x1="446.0" y1="70" x2="446.0" y2="205" class="grid"/>
<text x="446.0" y="227" text-anchor="middle" class="caption">14.0</text>
<line x1="562.0" y1="70" x2="562.0" y2="205" class="grid"/>
<text x="562.0" y="227" text-anchor="middle" class="caption">28.0</text>
<line x1="678.0" y1="70" x2="678.0" y2="205" class="grid"/>
<text x="678.0" y="227" text-anchor="middle" class="caption">42.0</text>
<line x1="794.0" y1="70" x2="794.0" y2="205" class="grid"/>
<text x="794.0" y="227" text-anchor="middle" class="caption">56.0</text>
<line x1="910.0" y1="70" x2="910.0" y2="205" class="grid"/>
<text x="910.0" y="227" text-anchor="middle" class="caption">70.0</text>
<line x1="330" y1="70" x2="330" y2="205" class="axis"/>
<line x1="330" y1="205" x2="910" y2="205" class="axis"/>
<text x="318" y="142.5" text-anchor="end" class="label">DiskIndexWriteBenchmark.writeIndex</text>
<rect x="330" y="123.5" width="540.4" height="28.0" rx="4" fill="#9b51e0"/>
<text x="878.4" y="142.5" class="value">65.2 ms/op</text>
<text x="620.0" y="250" text-anchor="middle" class="caption">ms/op</text>
</svg>