<?xml version="1.0" encoding="UTF-8"?>
<svg xmlns="http://www.w3.org/2000/svg" width="980" height="360" viewBox="0 0 980 360">

<style>
    text { font-family: Arial, sans-serif; fill: #172033; }
    .title { font-size: 20px; font-weight: 700; }
    .axis { stroke: #293241; stroke-width: 1.2; }
    .grid { stroke: #d7dee8; stroke-width: 1; }
    .label { font-size: 12px; }
    .value { font-size: 12px; font-weight: 600; }
    .caption { font-size: 12px; fill: #536173; }
</style>

<rect width="100%" height="100%" fill="#ffffff"/>
<text x="490.0" y="32" text-anchor="middle" class="title">Размер файлов wiki-индекса</text>
<line x1="240.0" y1="70" x2="240.0" y2="305" class="grid"/>
<text x="240.0" y="327" text-anchor="middle" class="caption">0.000</text>
<line x1="374.0" y1="70" x2="374.0" y2="305" class="grid"/>
<text x="374.0" y="327" text-anchor="middle" class="caption">10.0</text>
<line x1="508.0" y1="70" x2="508.0" y2="305" class="grid"/>
<text x="508.0" y="327" text-anchor="middle" class="caption">20.0</text>
<line x1="642.0" y1="70" x2="642.0" y2="305" class="grid"/>
<text x="642.0" y="327" text-anchor="middle" class="caption">30.0</text>
<line x1="776.0" y1="70" x2="776.0" y2="305" class="grid"/>
<text x="776.0" y="327" text-anchor="middle" class="caption">40.0</text>
<line x1="910.0" y1="70" x2="910.0" y2="305" class="grid"/>
<text x="910.0" y="327" text-anchor="middle" class="caption">50.0</text>
<line x1="240" y1="70" x2="240" y2="305" class="axis"/>
<line x1="240" y1="305" x2="910" y2="305" class="axis"/>
<text x="228" y="104.4" text-anchor="end" class="label">dictionary.bin</text>
<rect x="240" y="85.4" width="203.2" height="28.0" rx="4" fill="#f2c94c"/>
<text x="451.2" y="104.4" class="value">15.2 MB</text>
<text x="228" y="163.2" text-anchor="end" class="label">postings.bin</text>
<rect x="240" y="144.1" width="465.4" height="28.0" rx="4" fill="#f2c94c"/>
<text x="713.4" y="163.2" class="value">34.7 MB</text>
<text x="228" y="221.9" text-anchor="end" class="label">positions.bin</text>
<rect x="240" y="202.9" width="621.3" height="28.0" rx="4" fill="#f2c94c"/>
<text x="869.3" y="221.9" class="value">46.4 MB</text>
<text x="228" y="280.7" text-anchor="end" class="label">documents.bin</text>
<rect x="240" y="261.6" width="0.9" height="28.0" rx="4" fill="#f2c94c"/>
<text x="248.9" y="280.7" class="value">0.066 MB</text>
<text x="575.0" y="350" text-anchor="middle" class="caption">MB</text>
</svg>